<svg xmlns="http://www.w3.org/2000/svg" width="63.293" height="62.952" viewBox="0 0 63.293 62.952"><defs><style>.a{fill:#fff;}</style></defs><g transform="translate(-114 -206)"><path class="a" d="M174.908,409.988H117.836a.927.927,0,1,0,0,1.854h11.27v3.628a.927.927,0,0,0,.927.927H159.81a.927.927,0,0,0,.927-.927v-3.628h14.171a.531.531,0,0,1,.531.531v6.216H115.854v-6.216a.531.531,0,0,1,.531-.531h2.028a.927.927,0,1,0,0-1.854h-2.028A2.388,2.388,0,0,0,114,412.373v25.161a1.786,1.786,0,0,0,1.783,1.783h4.457a1.786,1.786,0,0,0,1.784-1.783v-5.493h47.246v5.493a1.786,1.786,0,0,0,1.784,1.783h4.457a1.785,1.785,0,0,0,1.783-1.783V412.373a2.387,2.387,0,0,0-2.385-2.385Zm-16.025,4.555H130.96v-2.7h27.923Zm16.556,5.9v9.744H115.854v-9.744Zm-55.269,17.02h-4.315v-5.422h4.315Zm50.954,0v-5.422h4.315v5.422Zm0,0" transform="translate(0 -170.366)"/><path class="a" d="M175.566,206H122.338a.927.927,0,1,0,0,1.854h53.1v4.154H115.854v-4.154h7.72a.927.927,0,1,0,0-1.854h-7.847A1.729,1.729,0,0,0,114,207.727v4.409a1.729,1.729,0,0,0,1.727,1.727h9.441v1.152a2.979,2.979,0,0,0,2.975,2.975H138.3v4.855a2.209,2.209,0,0,0,2.207,2.207h1.009v3.811h-4.462a3.637,3.637,0,0,0-3.633,3.633v1.9a.927.927,0,0,0,.927.927h22.593a.927.927,0,0,0,.927-.927v-1.9a3.637,3.637,0,0,0-3.633-3.633h-4.462v-3.81h1.009a2.209,2.209,0,0,0,2.207-2.207V217.99H163.15a2.979,2.979,0,0,0,2.975-2.975v-1.152h9.441a1.729,1.729,0,0,0,1.727-1.727v-4.409A1.729,1.729,0,0,0,175.566,206Zm-19.55,26.5v.976H135.277V232.5a1.78,1.78,0,0,1,1.778-1.778h17.182a1.78,1.78,0,0,1,1.778,1.778Zm-8.094-3.633h-4.55v-3.81h4.55Zm3.215-6.017a.353.353,0,0,1-.352.353H140.509a.353.353,0,0,1-.353-.353V217.99h10.981Zm13.134-7.83a1.122,1.122,0,0,1-1.121,1.121H128.143a1.122,1.122,0,0,1-1.121-1.121v-1.152h37.249Zm0,0"/><path class="a" d="M302.463,491.788H305.5a1.91,1.91,0,0,0,1.908-1.908v-1.757a1.91,1.91,0,0,0-1.908-1.908h-3.042a1.91,1.91,0,0,0-1.908,1.908v1.757a1.91,1.91,0,0,0,1.908,1.908Zm-.053-3.665a.053.053,0,0,1,.053-.053H305.5a.053.053,0,0,1,.053.053v1.757a.053.053,0,0,1-.053.054h-3.042a.054.054,0,0,1-.053-.054Zm0,0" transform="translate(-155.806 -234.028)"/><path class="a" d="M359.365,491.788h3.042a1.91,1.91,0,0,0,1.907-1.908v-1.757a1.91,1.91,0,0,0-1.907-1.908h-3.042a1.91,1.91,0,0,0-1.908,1.908v1.757a1.91,1.91,0,0,0,1.908,1.908Zm-.053-3.665a.053.053,0,0,1,.053-.053h3.042a.053.053,0,0,1,.053.053v1.757a.053.053,0,0,1-.053.054h-3.042a.053.053,0,0,1-.053-.054Zm0,0" transform="translate(-203.329 -234.028)"/><path class="a" d="M208.075,499.206h1.078a.927.927,0,1,0,0-1.854h-1.078a.927.927,0,1,0,0,1.854Zm0,0" transform="translate(-77.795 -243.33)"/><path class="a" d="M238.216,499.206h1.078a.927.927,0,1,0,0-1.854h-1.078a.927.927,0,1,0,0,1.854Zm0,0" transform="translate(-102.968 -243.33)"/><path class="a" d="M270.036,499.206h1.078a.927.927,0,0,0,0-1.854h-1.078a.927.927,0,0,0,0,1.854Zm0,0" transform="translate(-129.543 -243.33)"/></g></svg>