<svg xmlns="http://www.w3.org/2000/svg" xmlns:xlink="http://www.w3.org/1999/xlink" width="46.108" height="58" viewBox="0 0 46.108 58"><defs><style>.a{fill:#fff;}.b{clip-path:url(#a);}</style><clipPath id="a"><rect class="a" width="46" height="58" transform="translate(0.279 -0.102)"/></clipPath></defs><g transform="translate(-152.938 -203.987)"><path class="a" d="M242.394,562.531H207.965a.906.906,0,0,1-.906-.906v-2.719a.906.906,0,0,1,.906-.906h34.429a.906.906,0,0,1,.906.906v2.719a.906.906,0,0,1-.906.906Zm-33.522-1.813h32.616v-.906H208.872Zm0,0" transform="translate(-45.957 -300.544)"/><path class="a" d="M223.364,294.857h-15.4a.906.906,0,0,1-.906-.906V255.883a.907.907,0,0,1,.446-.781l15.4-9.071a.906.906,0,0,1,1.366.78v47.14a.906.906,0,0,1-.906.906Zm-14.493-1.812h13.587V248.4l-13.587,8Zm0,0" transform="translate(-45.957 -35.589)"/><path class="a" d="M325.336,473.311h-15.4a.905.905,0,0,1-.906-.906v-15.39a.905.905,0,0,1,.906-.906h15.4a.9.9,0,0,1,.906.906v15.39a.905.905,0,0,1-.906.906ZM310.844,471.5H324.43V457.922H310.844Zm0,0" transform="translate(-132.527 -214.043)"/><path class="a" d="M348.1,245.561h-5.43a3.629,3.629,0,0,1-3.625-3.625V222.906a.906.906,0,1,1,1.812,0v19.029a1.815,1.815,0,0,0,1.813,1.813h5.43a1.814,1.814,0,0,0,1.813-1.812V222.91a.906.906,0,1,1,1.812,0v19.026a3.629,3.629,0,0,1-3.625,3.625Zm0,0" transform="translate(-158.006 -15.294)"/><path class="a" d="M314.47,227.561h-4.533a.905.905,0,0,1-.906-.906V204.906a.905.905,0,0,1,.906-.906h4.533a.906.906,0,0,1,.906.906v21.748a.906.906,0,0,1-.906.906Zm-3.627-1.812h2.721V205.813h-2.721Zm0,0" transform="translate(-132.527 -0.013)"/><path class="a" d="M266.585,205.813H243.937a.906.906,0,0,1,0-1.812h22.648a.906.906,0,0,1,0,1.813Zm0,0" transform="translate(-76.496 -0.013)"/><path class="a" d="M243.937,218.017a.905.905,0,0,1-.906-.906v-12.2a.906.906,0,0,1,1.813,0v12.2a.905.905,0,0,1-.906.906Zm0,0" transform="translate(-76.496 -0.013)"/><path class="a" d="M162.082,333.158h-8.163a.906.906,0,0,1-.906-.906v-25.38a.905.905,0,0,1,.906-.906h8.163a.905.905,0,0,1,.906.906v25.38a.905.905,0,0,1-.906.906Zm-7.257-1.812h6.351V307.777h-6.351Zm0,0" transform="translate(-0.074 -86.577)"/><path class="a" d="M171.918,333.158a.906.906,0,0,1-.906-.906v-25.38a.906.906,0,0,1,1.813,0v25.38a.906.906,0,0,1-.906.906Zm0,0" transform="translate(-15.355 -86.577)"/><path class="a" d="M189.918,333.158a.906.906,0,0,1-.906-.906v-25.38a.906.906,0,1,1,1.813,0v25.38a.906.906,0,0,1-.906.906Zm0,0" transform="translate(-30.636 -86.577)"/><path class="a" d="M355.862,437.454h-9.968a.906.906,0,0,1-.906-.906v-3.641a.906.906,0,0,1,.906-.906h9.968a.905.905,0,0,1,.906.906v3.641a.906.906,0,0,1-.906.906Zm-9.061-1.813h8.155v-1.829H346.8Zm0,0" transform="translate(-163.053 -193.575)"/><path class="a" d="M367.519,374.146h-3.625a.906.906,0,0,1-.906-.906v-6.346a.906.906,0,0,1,.906-.906h3.625a.906.906,0,0,1,.906.906v6.346a.906.906,0,0,1-.906.906Zm-2.719-1.812h1.813V367.8H364.8Zm0,0" transform="translate(-178.335 -137.534)"/><path class="a" d="M363.332,409.813h-5.437a.906.906,0,0,1,0-1.812h5.437a.906.906,0,0,1,0,1.813Zm0,0" transform="translate(-173.241 -173.2)"/><path class="a" d="M363.894,251.227a.906.906,0,0,1-.906-.906v-15.4a.906.906,0,1,1,1.812,0v15.4a.906.906,0,0,1-.906.906Zm0,0" transform="translate(-178.335 -25.492)"/><path class="a" d="M387.894,251.227a.906.906,0,0,1-.906-.906v-15.4a.906.906,0,1,1,1.812,0v15.4a.906.906,0,0,1-.906.906Zm0,0" transform="translate(-198.71 -25.492)"/><path class="a" d="M396.6,208.535a.905.905,0,0,1-.906-.906,1.817,1.817,0,0,0-1.815-1.816.906.906,0,0,1,0-1.812,3.632,3.632,0,0,1,3.627,3.628.9.9,0,0,1-.906.906Zm0,0" transform="translate(-203.794 -0.013)"/><path class="a" d="M248.439,452.844h-4.532a.906.906,0,0,1-.906-.906V432.906a.906.906,0,0,1,.906-.906h4.532a.906.906,0,0,1,.906.906v19.031a.906.906,0,0,1-.906.906Zm-3.626-1.812h2.72V433.813h-2.72Zm0,0" transform="translate(-76.47 -193.575)"/><path class="a" d="M441.894,374.146a.906.906,0,0,1-.906-.906v-6.346a.906.906,0,0,1,1.813,0v6.346a.906.906,0,0,1-.906.906Zm0,0" transform="translate(-244.553 -137.534)"/><g transform="translate(152.767 204.089)"><g class="b" transform="translate(0 0)"><path class="a" d="M435.892,368.7a.906.906,0,0,1-.641-1.547l.906-.906a.906.906,0,0,1,1.281,1.281l-.906.906a.906.906,0,0,1-.641.266Zm0,0" transform="translate(-392.224 -341.62)"/><path class="a" d="M442.8,368.7a.9.9,0,0,1-.641-.266l-.906-.906a.906.906,0,0,1,1.281-1.281l.906.906a.906.906,0,0,1-.641,1.547Zm0,0" transform="translate(-397.317 -341.62)"/><path class="a" d="M441.892,404.716a.906.906,0,0,1-.641-1.547l.906-.906a.906.906,0,0,1,1.281,1.281l-.906.906a.905.905,0,0,1-.641.266Zm0,0" transform="translate(-397.317 -372.193)"/></g></g><path class="a" d="M436.8,404.716a.9.9,0,0,1-.641-.266l-.906-.906a.906.906,0,0,1,1.281-1.281l.906.906a.906.906,0,0,1-.641,1.547Zm0,0" transform="translate(-239.457 -168.104)"/></g></svg>