<svg xmlns="http://www.w3.org/2000/svg" width="172" height="62.359" viewBox="0 0 172 62.359"><defs><style>.a{fill:#168fc8;isolation:isolate;}.b{fill:#fff;}.c{fill:#006ab5;}</style></defs><g transform="translate(-231.11 -454.557)"><path class="a" d="M280.942,497.308v-8.128h17.144v-8.25H280.942v-6.018h18.622V464.365H269.788v43.489h30.482V497.308Z" transform="translate(5.157 1.308)"/><path class="a" d="M333.337,499.624a18.036,18.036,0,0,0-.873-1.7,45.5,45.5,0,0,0-4.1-6.15,18.428,18.428,0,0,0-3.2-2.889,11.489,11.489,0,0,0,9.443-12.114,13.124,13.124,0,0,0-1.838-7.043,10.232,10.232,0,0,0-4.742-4.179c-1.905-.8-4.952-1.186-9.313-1.186h-17.16v43.489H312.8V490.162h1.07c1.741,0,.74.148,1.5.441a5.566,5.566,0,0,1,2.123,1.582,44.29,44.29,0,0,1,3.1,4.531,19.2,19.2,0,0,1,1.7,3.409l2.935,7.728h11.811ZM312.8,472.644h3.352c4.312,0,3.511.162,3.976.295a4.036,4.036,0,0,1,2.182,1.489,4.833,4.833,0,0,1,.8,2.923,5.186,5.186,0,0,1-.806,3.059,3.74,3.74,0,0,1-2.074,1.481c-.918.263-.9.4-4.4.4H312.8Z" transform="translate(9.394 1.308)"/><rect class="a" width="11.533" height="43.489" transform="translate(349.708 465.673)"/><path class="a" d="M376.993,464.365v26.841l-14.865-26.841H352.034v43.489h11.125V481.665l13.458,26.189h10.369V464.365Z" transform="translate(16.124 1.308)"/><g transform="translate(231.11 454.557)"><rect class="b" width="12.515" height="60.517" transform="translate(0.85 0.85)"/><path class="c" d="M243.626,456.257v58.816H232.81V456.257h10.815m1.7-1.7H231.11v62.216h14.215V454.557Z" transform="translate(-231.11 -454.557)"/></g><g transform="translate(250.31 454.557)"><rect class="b" width="12.515" height="15.286" transform="translate(0.85 0.85)"/><path class="c" d="M260.566,456.257v13.585H249.751V456.257h10.815m1.7-1.7H248.051v16.985h14.215V454.557Z" transform="translate(-248.051 -454.557)"/></g><g transform="translate(250.31 477.244)"><rect class="b" width="12.515" height="15.285" transform="translate(0.85 0.85)"/><path class="c" d="M260.566,476.275v13.584H249.751V476.275h10.815m1.7-1.7H248.051v16.984h14.215V474.575Z" transform="translate(-248.051 -474.575)"/></g><g transform="translate(250.31 499.93)"><rect class="b" width="12.515" height="15.285" transform="translate(0.85 0.851)"/><path class="c" d="M260.566,496.292v13.585H249.751V496.292h10.815m1.7-1.7H248.051v16.985h14.215V494.592Z" transform="translate(-248.051 -494.592)"/></g></g></svg>