<svg xmlns="http://www.w3.org/2000/svg" width="58" height="58" viewBox="0 0 58 58"><defs><style>.a{fill:#fff;}</style></defs><g transform="translate(-114 -204)"><path class="a" d="M170.867,256.336H153.2a1.13,1.13,0,0,0-.507.12l-6.557,3.279h-1.3L147.4,254.6a1.174,1.174,0,0,0,.13-.529v-9.062H149.8a1.133,1.133,0,0,0,1.133-1.133v-6H153.2a1.133,1.133,0,0,0,1.133-1.133v-6h2.266a1.132,1.132,0,0,0,1.078-.785l3.4-10.535a1.134,1.134,0,0,0-.277-1.149L155.93,213.4h4.062a1.132,1.132,0,0,0,1.023-.646l3.091-6.491h2.683a1.133,1.133,0,0,0,0-2.266H148.1a1.133,1.133,0,0,0,0,2.266h13.5l-2.319,4.871H126.723l-2.319-4.871h13.5a1.133,1.133,0,0,0,0-2.266H119.211a1.133,1.133,0,0,0,0,2.266h2.683l3.09,6.491a1.133,1.133,0,0,0,1.023.646h4.062l-4.864,4.863a1.133,1.133,0,0,0-.277,1.149l3.4,10.535a1.132,1.132,0,0,0,1.078.785h2.266v6a1.133,1.133,0,0,0,1.133,1.133h2.266v6a1.133,1.133,0,0,0,1.133,1.133h2.266v9.063a1.13,1.13,0,0,0,.12.507l2.578,5.157h-1.3l-6.557-3.279a1.136,1.136,0,0,0-.507-.12H115.133a1.133,1.133,0,0,0,0,2.266h17.4l6.557,3.279a1.136,1.136,0,0,0,.507.12h6.8a1.13,1.13,0,0,0,.507-.12l6.557-3.279h17.4a1.133,1.133,0,0,0,0-2.266Zm-25.6-5-4.531-4.531v-1.8h4.531Zm-15.035-22.867-2.932-9.091,5.975-5.976h19.453l5.975,5.976-2.932,9.091H150.93v-6a1.133,1.133,0,0,0-1.133-1.133H136.2a1.133,1.133,0,0,0-1.133,1.133v6Zm3.706,7.137v-4.871H136.2a1.133,1.133,0,0,0,1.133-1.133v-6h11.328v6a1.133,1.133,0,0,0,1.133,1.133h2.266v4.871h-7.93v-6a1.133,1.133,0,0,0-2.266,0v6Zm3.4,7.137v-4.871h11.328v4.871Zm3.4,11.061v-3.795l4.286,4.286-2.02,4.04Zm0,0"/><path class="a" d="M213.831,488.334a1.135,1.135,0,0,0,0-1.6l-3.4-3.4a1.133,1.133,0,0,0-1.6,1.6l3.4,3.4a1.134,1.134,0,0,0,1.6,0Zm0,0" transform="translate(-80.225 -236.86)"/><path class="a" d="M369.731,483.333l-3.4,3.4a1.133,1.133,0,0,0,1.6,1.6l3.4-3.4a1.133,1.133,0,0,0-1.6-1.6Zm0,0" transform="translate(-213.939 -236.86)"/><path class="a" d="M300.766,205.133A1.133,1.133,0,1,1,299.633,204a1.133,1.133,0,0,1,1.133,1.133Zm0,0" transform="translate(-156.633)"/></g></svg>