<svg xmlns="http://www.w3.org/2000/svg" xmlns:xlink="http://www.w3.org/1999/xlink" width="16" height="16" viewBox="0 0 16 16"><defs><style>.a{fill:#168fc8;}.b{clip-path:url(#a);}</style><clipPath id="a"><rect class="a" width="16" height="16" transform="translate(-0.007)"/></clipPath></defs><g transform="translate(-426.993 -128.703)"><g transform="translate(427 128.703)"><g class="b" transform="translate(0 0)"><path class="a" d="M443.589,133.626a5.746,5.746,0,0,0-.366-1.909,4.03,4.03,0,0,0-2.3-2.3,5.766,5.766,0,0,0-1.909-.366c-.842-.04-1.11-.049-3.246-.049s-2.4.009-3.243.046a5.753,5.753,0,0,0-1.909.366,4.03,4.03,0,0,0-2.3,2.3,5.766,5.766,0,0,0-.366,1.909c-.04.842-.049,1.11-.049,3.246s.009,2.4.046,3.243a5.752,5.752,0,0,0,.366,1.909,4.029,4.029,0,0,0,2.3,2.3,5.764,5.764,0,0,0,1.909.366c.839.037,1.107.046,3.243.046s2.4-.009,3.243-.046a5.748,5.748,0,0,0,1.909-.366,4.024,4.024,0,0,0,2.3-2.3,5.767,5.767,0,0,0,.366-1.909c.037-.839.046-1.107.046-3.243s0-2.4-.04-3.243Zm-1.417,6.424a4.313,4.313,0,0,1-.271,1.46A2.61,2.61,0,0,1,440.408,143a4.331,4.331,0,0,1-1.46.27c-.83.037-1.079.046-3.178.046s-2.351-.009-3.178-.046a4.314,4.314,0,0,1-1.46-.27,2.421,2.421,0,0,1-.9-.587,2.447,2.447,0,0,1-.587-.9,4.333,4.333,0,0,1-.27-1.46c-.037-.83-.046-1.079-.046-3.178s.009-2.351.046-3.178a4.314,4.314,0,0,1,.27-1.46,2.39,2.39,0,0,1,.59-.9,2.443,2.443,0,0,1,.9-.587,4.334,4.334,0,0,1,1.46-.271c.83-.037,1.079-.046,3.178-.046s2.351.009,3.178.046a4.315,4.315,0,0,1,1.46.271,2.594,2.594,0,0,1,1.491,1.491,4.33,4.33,0,0,1,.271,1.46c.037.83.046,1.079.046,3.178s-.009,2.345-.046,3.175Zm0,0" transform="translate(-427.87 -128.741)"/></g></g><path class="a" d="M556.222,253.281a4.042,4.042,0,1,0,4.042,4.042,4.043,4.043,0,0,0-4.042-4.042Zm0,6.664a2.622,2.622,0,1,1,2.622-2.622,2.622,2.622,0,0,1-2.622,2.622Zm0,0" transform="translate(-121.325 -120.492)"/><path class="a" d="M791.149,218.389a.944.944,0,1,1-.944-.944.944.944,0,0,1,.944.944Zm0,0" transform="translate(-351.107 -85.76)"/></g></svg>