<svg xmlns="http://www.w3.org/2000/svg" width="17.126" height="12.845" viewBox="0 0 17.126 12.845"><defs><style>.a{fill:#fff;}</style></defs><path class="a" d="M16.8,68.241a.2.2,0,0,1,.324.157v6.84a1.606,1.606,0,0,1-1.606,1.606H1.606A1.606,1.606,0,0,1,0,75.239V68.4a.2.2,0,0,1,.324-.157c.749.582,1.743,1.321,5.155,3.8.706.515,1.9,1.6,3.084,1.592,1.194.01,2.408-1.1,3.087-1.592C15.062,69.566,16.052,68.823,16.8,68.241ZM8.563,72.563c.776.013,1.893-.977,2.455-1.385,4.439-3.221,4.777-3.5,5.8-4.3a.8.8,0,0,0,.308-.632v-.636A1.606,1.606,0,0,0,15.52,64H1.606A1.606,1.606,0,0,0,0,65.606v.636a.805.805,0,0,0,.308.632c1.024.8,1.361,1.084,5.8,4.3.562.408,1.679,1.4,2.455,1.385Z" transform="translate(0 -64)"/></svg>