<svg xmlns="http://www.w3.org/2000/svg" width="36.846" height="36.846" viewBox="0 0 36.846 36.846"><defs><style>.a{fill:#fff;}</style></defs><path class="a" d="M31.327,37.354A18.264,18.264,0,0,0,2.591,59.388L0,68.846,9.68,66.3a18.2,18.2,0,0,0,8.726,2.221h.008A18.142,18.142,0,0,0,31.327,37.354ZM18.415,65.449a15.149,15.149,0,0,1-7.731-2.114l-.551-.329L4.392,64.511l1.53-5.6-.362-.576a15.205,15.205,0,1,1,28.2-8.068A15.345,15.345,0,0,1,18.415,65.449Zm8.323-11.366c-.452-.23-2.7-1.332-3.117-1.48s-.724-.23-1.028.23-1.176,1.48-1.448,1.793-.535.345-.987.115c-2.681-1.341-4.441-2.393-6.209-5.428-.469-.806.469-.748,1.341-2.492a.845.845,0,0,0-.041-.8c-.115-.23-1.028-2.476-1.406-3.388-.37-.888-.748-.765-1.028-.781-.263-.016-.567-.016-.872-.016a1.69,1.69,0,0,0-1.217.567,5.127,5.127,0,0,0-1.6,3.808,8.938,8.938,0,0,0,1.859,4.721c.23.3,3.216,4.91,7.8,6.892,2.9,1.25,4.03,1.357,5.478,1.143.88-.132,2.7-1.1,3.076-2.171a3.816,3.816,0,0,0,.263-2.171C27.494,54.42,27.19,54.3,26.738,54.083Z" transform="translate(0 -32)"/></svg>