<svg xmlns="http://www.w3.org/2000/svg" width="109.438" height="109.439" viewBox="0 0 109.438 109.439"><defs><style>.a{fill:#168fc8;}</style></defs><g transform="translate(-114 -204)"><path class="a" d="M221.3,302.751H187.957a2.131,2.131,0,0,0-.956.226l-12.373,6.186h-2.449l4.845-9.691a2.215,2.215,0,0,0,.246-1v-17.1h4.275a2.138,2.138,0,0,0,2.137-2.138V267.91h4.275a2.138,2.138,0,0,0,2.137-2.137V254.444h4.275a2.136,2.136,0,0,0,2.034-1.482l6.412-19.878a2.14,2.14,0,0,0-.522-2.168l-9.177-9.175h7.665a2.136,2.136,0,0,0,1.929-1.219l5.832-12.247h5.063a2.137,2.137,0,1,0,0-4.275H178.338a2.137,2.137,0,0,0,0,4.275h25.47l-4.376,9.191H138.006l-4.376-9.191H159.1a2.137,2.137,0,1,0,0-4.275H123.832a2.137,2.137,0,1,0,0,4.275H128.9l5.831,12.247a2.138,2.138,0,0,0,1.93,1.219h7.665l-9.177,9.175a2.137,2.137,0,0,0-.522,2.168l6.412,19.878a2.136,2.136,0,0,0,2.034,1.482h4.275v11.329a2.137,2.137,0,0,0,2.137,2.137h4.275v11.329a2.137,2.137,0,0,0,2.137,2.138h4.275v17.1a2.132,2.132,0,0,0,.226.956l4.865,9.731h-2.449l-12.373-6.186a2.143,2.143,0,0,0-.956-.226H116.137a2.137,2.137,0,0,0,0,4.275h32.84l12.373,6.186a2.143,2.143,0,0,0,.956.226h12.825a2.131,2.131,0,0,0,.956-.226l12.373-6.186H221.3a2.137,2.137,0,0,0,0-4.275Zm-48.307-9.435-8.55-8.55v-3.39h8.55Zm-28.368-43.147-5.533-17.153,11.274-11.275h36.7l11.274,11.275-5.533,17.153h-9.131V238.841a2.138,2.138,0,0,0-2.137-2.137h-25.65a2.138,2.138,0,0,0-2.137,2.137v11.329Zm6.994,13.466v-9.191h4.275a2.138,2.138,0,0,0,2.137-2.137V240.978h21.375v11.329a2.138,2.138,0,0,0,2.137,2.137h4.275v9.191H170.857V252.307a2.137,2.137,0,0,0-4.275,0v11.329Zm6.412,13.466V267.91h21.375V277.1Zm6.412,20.87v-7.161l8.087,8.087-3.812,7.624Zm0,0" transform="translate(0)"/><path class="a" d="M218.561,493.063a2.141,2.141,0,0,0,0-3.024l-6.412-6.412a2.138,2.138,0,1,0-3.024,3.024l6.412,6.412a2.14,2.14,0,0,0,3.024,0Zm0,0" transform="translate(-67.567 -199.487)"/><path class="a" d="M373.039,483.626l-6.412,6.412a2.138,2.138,0,1,0,3.024,3.024l6.412-6.412a2.138,2.138,0,1,0-3.024-3.024Zm0,0" transform="translate(-180.182 -199.487)"/><path class="a" d="M302.775,206.137A2.137,2.137,0,1,1,300.637,204a2.138,2.138,0,0,1,2.137,2.137Zm0,0" transform="translate(-131.918)"/></g></svg>