<svg xmlns="http://www.w3.org/2000/svg" width="115.113" height="114.492" viewBox="0 0 115.113 114.492"><defs><style>.a{fill:#168fc8;}</style></defs><g transform="translate(-114 -206)"><path class="a" d="M224.775,409.988h-103.8a1.686,1.686,0,1,0,0,3.372h20.5v6.6a1.686,1.686,0,0,0,1.686,1.686h54.156A1.685,1.685,0,0,0,199,419.958v-6.6h25.773a.966.966,0,0,1,.965.965v11.306H117.372V414.325a.967.967,0,0,1,.965-.965h3.688a1.686,1.686,0,0,0,0-3.372h-3.688A4.342,4.342,0,0,0,114,414.325v45.761a3.248,3.248,0,0,0,3.244,3.244h8.106a3.247,3.247,0,0,0,3.244-3.244V450.1H214.52v9.99a3.248,3.248,0,0,0,3.244,3.244h8.107a3.247,3.247,0,0,0,3.242-3.244V414.325a4.342,4.342,0,0,0-4.337-4.337Zm-29.146,8.284H144.846V413.36h50.784ZM225.74,429v17.722H117.372V429ZM125.22,459.958h-7.848V450.1h7.848Zm92.672,0V450.1h7.848v9.861Zm0,0" transform="translate(0 -142.838)"/><path class="a" d="M225.972,206H129.164a1.686,1.686,0,1,0,0,3.372H225.74v7.555H117.372v-7.555h14.04a1.686,1.686,0,1,0,0-3.372H117.141A3.144,3.144,0,0,0,114,209.141v8.019a3.144,3.144,0,0,0,3.141,3.14h17.17v2.1a5.417,5.417,0,0,0,5.411,5.411H158.2v8.829a4.017,4.017,0,0,0,4.013,4.013h1.835v6.931h-8.115a6.614,6.614,0,0,0-6.607,6.607v3.461a1.686,1.686,0,0,0,1.686,1.686H192.1a1.686,1.686,0,0,0,1.686-1.686v-3.461a6.614,6.614,0,0,0-6.607-6.607h-8.115v-6.93H180.9a4.018,4.018,0,0,0,4.013-4.014v-8.829h18.477A5.417,5.417,0,0,0,208.8,222.4v-2.1h17.17a3.144,3.144,0,0,0,3.141-3.14v-8.019A3.144,3.144,0,0,0,225.972,206Zm-35.557,48.187v1.775H152.7v-1.775a3.238,3.238,0,0,1,3.234-3.234h31.249a3.238,3.238,0,0,1,3.234,3.234Zm-14.722-6.607h-8.276v-6.93h8.276Zm5.848-10.944a.642.642,0,0,1-.641.642H162.212a.642.642,0,0,1-.642-.642v-8.829h19.971Zm23.888-14.24a2.041,2.041,0,0,1-2.039,2.039H139.722a2.041,2.041,0,0,1-2.039-2.039v-2.1h67.746Zm0,0" transform="translate(0)"/><path class="a" d="M304.025,496.35h5.532a3.473,3.473,0,0,0,3.47-3.47v-3.2a3.473,3.473,0,0,0-3.47-3.47h-5.532a3.473,3.473,0,0,0-3.47,3.47v3.2a3.473,3.473,0,0,0,3.47,3.47Zm-.1-6.666a.1.1,0,0,1,.1-.1h5.532a.1.1,0,0,1,.1.1v3.2a.1.1,0,0,1-.1.1h-5.532a.1.1,0,0,1-.1-.1Zm0,0" transform="translate(-130.631 -196.214)"/><path class="a" d="M360.927,496.35h5.532a3.473,3.473,0,0,0,3.469-3.47v-3.2a3.473,3.473,0,0,0-3.469-3.47h-5.532a3.473,3.473,0,0,0-3.47,3.47v3.2a3.473,3.473,0,0,0,3.47,3.47Zm-.1-6.666a.1.1,0,0,1,.1-.1h5.532a.1.1,0,0,1,.1.1v3.2a.1.1,0,0,1-.1.1h-5.532a.1.1,0,0,1-.1-.1Zm0,0" transform="translate(-170.475 -196.214)"/><path class="a" d="M208.834,500.724H210.8a1.686,1.686,0,0,0,0-3.372h-1.961a1.686,1.686,0,1,0,0,3.372Zm0,0" transform="translate(-65.225 -204.013)"/><path class="a" d="M238.975,500.724h1.961a1.686,1.686,0,1,0,0-3.372h-1.961a1.686,1.686,0,1,0,0,3.372Zm0,0" transform="translate(-86.33 -204.013)"/><path class="a" d="M270.8,500.724h1.96a1.686,1.686,0,0,0,0-3.372H270.8a1.686,1.686,0,0,0,0,3.372Zm0,0" transform="translate(-108.612 -204.013)"/></g></svg>