<svg xmlns="http://www.w3.org/2000/svg" width="119.301" height="105.773" viewBox="0 0 119.301 105.773"><defs><style>.a{fill:#168fc8;}</style></defs><g transform="translate(2610.844 -1266.919)"><g transform="translate(-2588.374 1293.6)"><path class="a" d="M-2446.854,1418.407h-70.914a1.722,1.722,0,0,1-1.722-1.722v-9.894a1.722,1.722,0,0,1,1.722-1.722h3.227v-6.449h-3.227a1.722,1.722,0,0,1-1.722-1.722v-19.785a1.722,1.722,0,0,1,1.722-1.722l70.912,0a1.723,1.723,0,0,1,1.218.5,1.723,1.723,0,0,1,.5,1.218V1396.9a1.722,1.722,0,0,1-1.722,1.722h-4.875v6.451h4.877a1.722,1.722,0,0,1,1.722,1.722v9.894A1.722,1.722,0,0,1-2446.854,1418.407Zm-69.192-3.444h67.471v-6.451h-4.877a1.722,1.722,0,0,1-1.722-1.722V1396.9a1.722,1.722,0,0,1,1.722-1.722h4.874v-16.342l-67.468,0v16.342h3.226a1.722,1.722,0,0,1,1.722,1.722v9.893a1.722,1.722,0,0,1-1.722,1.722h-3.226Z" transform="translate(2519.49 -1375.389)"/></g><g transform="translate(-2582.699 1313.392)"><path class="a" d="M-2435.332,1459.3H-2494.7a1.722,1.722,0,0,1-1.722-1.722,1.722,1.722,0,0,1,1.722-1.722h59.369a1.721,1.721,0,0,1,1.722,1.722A1.722,1.722,0,0,1-2435.332,1459.3Z" transform="translate(2496.422 -1455.852)"/></g><g transform="translate(-2582.699 1323.286)"><path class="a" d="M-2435.332,1499.52H-2494.7a1.722,1.722,0,0,1-1.722-1.722,1.722,1.722,0,0,1,1.722-1.722h59.369a1.722,1.722,0,0,1,1.722,1.722A1.722,1.722,0,0,1-2435.332,1499.52Z" transform="translate(2496.422 -1496.076)"/></g><g transform="translate(-2610.844 1266.919)"><g transform="translate(0 0.01)"><path class="a" d="M-2584.966,1297.076h-7.735a1.722,1.722,0,0,1-1.466-.819l-16.421-26.672a1.722,1.722,0,0,1,.564-2.369,1.722,1.722,0,0,1,2.369.564l15.916,25.853h6.774a1.722,1.722,0,0,1,1.722,1.722A1.722,1.722,0,0,1-2584.966,1297.076Z" transform="translate(2610.844 -1266.96)"/></g><g transform="translate(93.153)"><path class="a" d="M-2224.127,1297.035h-6.284a1.722,1.722,0,0,1-1.722-1.722,1.722,1.722,0,0,1,1.722-1.722h5.322l15.917-25.853a1.722,1.722,0,0,1,2.369-.563,1.722,1.722,0,0,1,.563,2.369l-16.42,26.672A1.723,1.723,0,0,1-2224.127,1297.035Z" transform="translate(2232.133 -1266.919)"/></g></g><g transform="translate(-2553.439 1336.817)"><rect class="a" width="6.395" height="22.886"/></g><g transform="translate(-2606.405 1368.51)"><path class="a" d="M-2484.664,1684.115h-106.043a2.091,2.091,0,0,1-2.091-2.091,2.091,2.091,0,0,1,2.091-2.091h106.043a2.091,2.091,0,0,1,2.091,2.091A2.091,2.091,0,0,1-2484.664,1684.115Z" transform="translate(2592.798 -1679.934)"/></g></g></svg>