<svg xmlns="http://www.w3.org/2000/svg" width="94.593" height="119.586" viewBox="0 0 94.593 119.586"><defs><style>.a{fill:#168fc8;}</style></defs><g transform="translate(5066.094 -533.75)"><g transform="translate(-5066.094 533.75)"><path class="a" d="M-4973.349,619.105h-28.821a1.847,1.847,0,0,0-.827.2l-10.694,5.347h-2.116l4.188-8.376a1.912,1.912,0,0,0,.212-.862V600.63h3.7a1.848,1.848,0,0,0,1.848-1.848v-9.792h3.7a1.848,1.848,0,0,0,1.847-1.848v-9.792h3.7a1.847,1.847,0,0,0,1.758-1.281l5.542-17.182a1.848,1.848,0,0,0-.451-1.874l-7.932-7.931h6.625a1.845,1.845,0,0,0,1.667-1.054l5.042-10.586H-4980a1.848,1.848,0,0,0,1.848-1.848A1.848,1.848,0,0,0-4980,533.75h-30.484a1.848,1.848,0,0,0-1.848,1.847,1.848,1.848,0,0,0,1.848,1.848h22.016l-3.782,7.944h-53.094l-3.782-7.944h22.016a1.848,1.848,0,0,0,1.848-1.848,1.848,1.848,0,0,0-1.848-1.847H-5057.6a1.848,1.848,0,0,0-1.848,1.847,1.848,1.848,0,0,0,1.848,1.848h4.377l5.04,10.586a1.847,1.847,0,0,0,1.668,1.054h6.625l-7.932,7.931a1.848,1.848,0,0,0-.451,1.874l5.543,17.182a1.845,1.845,0,0,0,1.758,1.281h3.7v9.792a1.847,1.847,0,0,0,1.847,1.848h3.7v9.792a1.848,1.848,0,0,0,1.848,1.848h3.7v14.78a1.842,1.842,0,0,0,.2.826l4.205,8.411h-2.117L-5034.6,619.3a1.854,1.854,0,0,0-.827-.2h-28.821a1.847,1.847,0,0,0-1.847,1.847,1.847,1.847,0,0,0,1.847,1.848h28.386l10.694,5.347a1.856,1.856,0,0,0,.826.2h11.086a1.844,1.844,0,0,0,.826-.2l10.694-5.347h28.386a1.848,1.848,0,0,0,1.848-1.848,1.848,1.848,0,0,0-1.848-1.847Zm-42.154-3.331-3.295,6.589-3.7-7.39V600.63h7.391v10.32Zm-5.143-30.479h-12.933v-7.944h3.7a1.848,1.848,0,0,0,1.848-1.848,1.864,1.864,0,0,0-1.875-1.848h-9.713l-4.781-14.826,9.744-9.746h31.726l9.744,9.746-4.782,14.826h-7.893l-2.055-.029a1.643,1.643,0,0,0-1.641,1.877,1.848,1.848,0,0,0,1.848,1.848h3.7V585.3h-12.933m-11.085,11.639v-7.944h18.475v7.944Zm11.074,19.656-6.99-6.99,1.458,5.373" transform="translate(5066.094 -533.75)"/></g><g transform="translate(-5047.291 629.663)"><path class="a" d="M-4935.75,946.784h-52.287a1.724,1.724,0,0,1-1.724-1.724V924.835a1.725,1.725,0,0,1,.709-1.394,1.727,1.727,0,0,1,1.545-.246l13.985,4.525a16.81,16.81,0,0,0,5.183.818h13.381a16.287,16.287,0,0,0,5.161-.838l13.5-4.5a1.722,1.722,0,0,1,1.553.237,1.723,1.723,0,0,1,.716,1.4v20.224A1.724,1.724,0,0,1-4935.75,946.784Zm-50.562-3.449h48.838V927.228l-11.231,3.744a19.735,19.735,0,0,1-6.251,1.014h-13.381a20.252,20.252,0,0,1-6.244-.985l-11.731-3.8Z" transform="translate(4989.76 -923.111)"/></g></g></svg>