<svg xmlns="http://www.w3.org/2000/svg" width="27.057" height="59.985" viewBox="0 0 27.057 59.985"><defs><style>.a{fill:#fff;}</style></defs><path class="a" d="M-425.963,234.4h-22.546a2.256,2.256,0,0,0-2.256,2.256v9.021a2.256,2.256,0,0,0,2.256,2.256h3.538v23.648h-1.039a.86.86,0,0,0-.86.86.859.859,0,0,0,.86.86h1.039v.815h-1.039a.859.859,0,0,0-.86.859.859.859,0,0,0,.86.86h1.039v.815h-1.039a.86.86,0,0,0-.86.86.859.859,0,0,0,.86.859h1.039v.651h-1.039a.859.859,0,0,0-.86.859.859.859,0,0,0,.86.86h1.039v.815h-1.039a.859.859,0,0,0-.86.859.859.859,0,0,0,.86.86h1.039v.815h-1.039a.859.859,0,0,0-.86.859.859.859,0,0,0,.86.86h1.039v.815h-1.039a.859.859,0,0,0-.86.86.859.859,0,0,0,.86.86h1.039v.815h-1.039a.859.859,0,0,0-.86.859.859.859,0,0,0,.86.86h1.039v.934a2.578,2.578,0,0,0,2.579,2.579h10.312a2.578,2.578,0,0,0,2.579-2.579v-.934h1.039a.859.859,0,0,0,.86-.86.859.859,0,0,0-.86-.859H-429.5v-.815h1.039a.859.859,0,0,0,.86-.86.859.859,0,0,0-.86-.86H-429.5v-.815h1.039a.859.859,0,0,0,.86-.86.859.859,0,0,0-.86-.859H-429.5v-.815h1.039a.859.859,0,0,0,.86-.86.859.859,0,0,0-.86-.859H-429.5v-.815h1.039a.859.859,0,0,0,.86-.86.859.859,0,0,0-.86-.859H-429.5v-.651h1.039a.859.859,0,0,0,.86-.859.86.86,0,0,0-.86-.86H-429.5v-.815h1.039a.859.859,0,0,0,.86-.86.859.859,0,0,0-.86-.859H-429.5V273.3h1.039a.859.859,0,0,0,.86-.86.86.86,0,0,0-.86-.86H-429.5V247.936h3.538a2.256,2.256,0,0,0,2.256-2.256V236.66A2.256,2.256,0,0,0-425.963,234.4Zm-5.257,57.406a.861.861,0,0,1-.86.86h-10.312a.861.861,0,0,1-.859-.86v-.934h12.031Zm0-2.653h-12.031v-.815h12.031Zm0-2.534h-12.031v-.815h12.031Zm0-2.534h-12.031v-.815h12.031Zm0-2.534h-12.031v-.815h12.031Zm0-2.534h-12.031v-.651h12.031Zm0-2.37h-12.031v-.815h12.031Zm0-2.534h-12.031V273.3h12.031Zm-12.031-2.534V248.271h12.031v23.313Zm17.825-25.9a.537.537,0,0,1-.537.537h-22.546a.537.537,0,0,1-.537-.537V236.66a.537.537,0,0,1,.537-.537h22.546a.537.537,0,0,1,.537.537Z" transform="translate(450.764 -234.404)"/></svg>