<svg xmlns="http://www.w3.org/2000/svg" width="53.001" height="53.001" viewBox="0 0 53.001 53.001"><defs><style>.a{fill:#fff;}</style></defs><g transform="translate(0 17.667)"><path class="a" d="M32.684,173.25h-.972a.869.869,0,0,1-.818-.571c-.108-.283-.223-.559-.348-.833a.871.871,0,0,1,.177-.986l.693-.693a2.656,2.656,0,0,0,0-3.745l-2.5-2.5a2.656,2.656,0,0,0-3.745,0l-.693.692a.875.875,0,0,1-.986.177c-.274-.125-.55-.24-.834-.353a.868.868,0,0,1-.573-.82v-.972a2.65,2.65,0,0,0-2.65-2.65H15.9a2.65,2.65,0,0,0-2.65,2.65v.972a.869.869,0,0,1-.571.818c-.283.108-.559.223-.833.348a.874.874,0,0,1-.986-.177l-.693-.693a2.656,2.656,0,0,0-3.745,0l-2.5,2.5a2.656,2.656,0,0,0,0,3.745l.692.693a.871.871,0,0,1,.177.986c-.125.274-.24.55-.349.834a.868.868,0,0,1-.824.57H2.65A2.65,2.65,0,0,0,0,175.9v3.533a2.65,2.65,0,0,0,2.65,2.65h.972a.869.869,0,0,1,.818.571c.108.283.223.559.348.833a.871.871,0,0,1-.177.986l-.693.693a2.656,2.656,0,0,0,0,3.745l2.5,2.5a2.656,2.656,0,0,0,3.745,0l.693-.692a.875.875,0,0,1,.986-.177c.274.125.55.24.834.353a.868.868,0,0,1,.578.82v.972a2.65,2.65,0,0,0,2.65,2.65h3.533a2.65,2.65,0,0,0,2.65-2.65v-.972a.869.869,0,0,1,.571-.818c.283-.108.559-.223.833-.348a.874.874,0,0,1,.986.177l.693.693a2.657,2.657,0,0,0,3.745,0l2.5-2.5a2.656,2.656,0,0,0,0-3.745l-.692-.693a.871.871,0,0,1-.177-.986c.125-.274.24-.55.353-.834a.868.868,0,0,1,.82-.573h.972a2.65,2.65,0,0,0,2.65-2.65V175.9A2.65,2.65,0,0,0,32.684,173.25Zm.883,6.183a.883.883,0,0,1-.883.883h-.972a2.659,2.659,0,0,0-2.473,1.708q-.14.371-.3.731a2.658,2.658,0,0,0,.53,2.965l.691.692a.883.883,0,0,1,0,1.249h0l-2.5,2.5a.883.883,0,0,1-1.249,0l-.693-.692a2.655,2.655,0,0,0-2.965-.53c-.239.109-.483.21-.729.3a2.658,2.658,0,0,0-1.708,2.472v.972a.883.883,0,0,1-.883.883H15.9a.883.883,0,0,1-.883-.883v-.972a2.659,2.659,0,0,0-1.708-2.473q-.371-.14-.731-.3a2.659,2.659,0,0,0-2.965.53l-.692.691a.883.883,0,0,1-1.249,0h0l-2.5-2.494a.883.883,0,0,1,0-1.249l.692-.693a2.658,2.658,0,0,0,.53-2.965c-.109-.239-.21-.483-.3-.729a2.658,2.658,0,0,0-2.472-1.71H2.65a.883.883,0,0,1-.883-.883V175.9a.883.883,0,0,1,.883-.883h.972A2.659,2.659,0,0,0,6.1,173.309q.14-.371.3-.731a2.658,2.658,0,0,0-.53-2.965l-.694-.692a.883.883,0,0,1,0-1.249h0l2.5-2.5a.883.883,0,0,1,1.249,0l.693.692a2.655,2.655,0,0,0,2.965.53c.239-.109.483-.21.729-.3a2.658,2.658,0,0,0,1.711-2.472v-.972a.883.883,0,0,1,.883-.883h3.533a.883.883,0,0,1,.883.883v.972a2.659,2.659,0,0,0,1.708,2.473q.371.14.731.3a2.655,2.655,0,0,0,2.965-.53l.692-.691a.889.889,0,0,1,1.25,0l2.5,2.5a.883.883,0,0,1,0,1.249l-.692.693a2.658,2.658,0,0,0-.53,2.965c.109.239.21.483.3.729a2.658,2.658,0,0,0,2.472,1.708h.972a.883.883,0,0,1,.883.883v3.533Z" transform="translate(0 -160)"/></g><g transform="translate(9.712 27.384)"><path class="a" d="M103.846,255.6c-.009-.212-.024-.423-.049-.633-.028-.226-.062-.451-.109-.67-.031-.144-.072-.286-.11-.429q-.074-.273-.167-.538c-.043-.123-.088-.245-.134-.366a7.866,7.866,0,0,0-.39-.827c-.011-.02-.019-.042-.03-.063a7.838,7.838,0,0,0-.8-1.158c-.026-.032-.055-.062-.081-.093-.122-.144-.247-.284-.379-.417-.069-.072-.141-.139-.214-.208-.088-.082-.177-.163-.265-.241q-.161-.14-.328-.27l-.145-.108A7.894,7.894,0,0,0,95.913,248c-.088,0-.177.013-.265.017-.188.005-.377.016-.567.035-.1.011-.2.022-.3.036a8.1,8.1,0,0,0-.856.16,7.955,7.955,0,0,0,.006,15.4.2.2,0,0,1,.044.008,8.436,8.436,0,0,0,.926.177c.206.026.412.031.618.041.138.007.265.027.409.027.252,0,.513-.017.78-.043a.866.866,0,0,0,.088-.012c.215-.024.432-.056.654-.1.088-.017.17-.039.255-.058.155-.036.31-.074.469-.121.124-.037.244-.08.365-.123s.246-.088.372-.136.231-.1.345-.155c.148-.068.3-.135.442-.215H99.7a10.454,10.454,0,0,0,2.264-1.635,2.78,2.78,0,0,0,.473-.579,9.43,9.43,0,0,0,1.33-3.631c.025-.171.047-.341.06-.515s.021-.319.025-.478c0-.05.007-.1.007-.148C103.863,255.832,103.851,255.717,103.846,255.6Zm-1.761.579c0,.073-.006.147-.011.219-.016.214-.043.428-.079.642a6.2,6.2,0,0,1-3.1,4.328c-.11.057-.217.111-.325.161l-.073.035a6.383,6.383,0,0,1-1.611.488l-.118.019c-.11.016-.219.029-.327.039-.142.012-.285.019-.431.022h-.185a6.208,6.208,0,0,1-.625-.039l-.106-.012a6.54,6.54,0,0,1-.722-.136,6.183,6.183,0,0,1-.006-11.979h0a6.4,6.4,0,0,1,1.552-.194,6.1,6.1,0,0,1,.755.051c.067.008.133.02.2.03.191.03.38.068.566.116.061.016.122.03.182.047a6.238,6.238,0,0,1,1.347.567c.068.04.134.081.2.123.14.088.275.177.408.277.072.052.144.1.213.159a6.366,6.366,0,0,1,.5.442c.063.064.12.133.181.2.1.11.2.223.3.343.065.082.128.167.19.253.088.127.177.26.256.394l.133.22a6.06,6.06,0,0,1,.3.647c.035.088.065.177.1.265.057.163.107.327.15.493.022.088.047.167.065.253a6.222,6.222,0,0,1,.112.723c.005.065.005.13.01.194C102.09,255.766,102.093,255.97,102.085,256.175Z" transform="translate(-87.959 -248)"/></g><g transform="translate(9.635)"><path class="a" d="M127.977,18.55H125.2a.862.862,0,0,1-.823-.579,18.4,18.4,0,0,0-.992-2.395.865.865,0,0,1,.17-1l1.97-1.973a2.65,2.65,0,0,0,0-3.746l-3.756-3.75a2.65,2.65,0,0,0-3.746,0l-1.969,1.968a.865.865,0,0,1-1,.17,18.352,18.352,0,0,0-2.4-1,.862.862,0,0,1-.583-.823V2.65A2.65,2.65,0,0,0,109.427,0h-5.3a2.65,2.65,0,0,0-2.65,2.65V5.428a.862.862,0,0,1-.579.823,18.41,18.41,0,0,0-2.395,1,.863.863,0,0,1-1-.17l-1.973-1.97a2.655,2.655,0,0,0-3.746,0L88.037,8.857a2.65,2.65,0,0,0,0,3.747l2.9,2.9a.883.883,0,0,0,1.251-1.247l-2.9-2.9a.883.883,0,0,1,0-1.249L93.035,6.36a.883.883,0,0,1,1.249,0l1.973,1.97a2.626,2.626,0,0,0,3.035.5,16.713,16.713,0,0,1,2.165-.9,2.628,2.628,0,0,0,1.785-2.5V2.65a.883.883,0,0,1,.883-.883h5.3a.883.883,0,0,1,.883.883V5.428a2.627,2.627,0,0,0,1.785,2.5,16.661,16.661,0,0,1,2.166.9,2.632,2.632,0,0,0,3.034-.5l1.973-1.969a.883.883,0,0,1,1.249,0l3.749,3.75a.883.883,0,0,1,0,1.248l-1.97,1.973a2.629,2.629,0,0,0-.5,3.035,16.715,16.715,0,0,1,.9,2.165,2.627,2.627,0,0,0,2.5,1.785h2.778a.883.883,0,0,1,.883.883v5.3a.883.883,0,0,1-.883.883H125.2a2.627,2.627,0,0,0-2.5,1.785,16.644,16.644,0,0,1-.9,2.166,2.63,2.63,0,0,0,.5,3.034l1.97,1.973a.883.883,0,0,1,0,1.249l-3.751,3.749a.883.883,0,0,1-1.248,0l-2.9-2.9a.883.883,0,1,0-1.269,1.229l.022.022,2.9,2.9a2.65,2.65,0,0,0,3.746,0l3.749-3.748a2.65,2.65,0,0,0,0-3.747l-1.967-1.971a.866.866,0,0,1-.17-1,18.35,18.35,0,0,0,1-2.4.862.862,0,0,1,.823-.583h2.778a2.65,2.65,0,0,0,2.65-2.65V21.2A2.65,2.65,0,0,0,127.977,18.55Z" transform="translate(-87.261)"/></g><g transform="translate(20.783 12.372)"><path class="a" d="M204.706,115.408a11.5,11.5,0,0,0-16.24,0,.883.883,0,0,0,1.249,1.249,9.717,9.717,0,1,1,13.833,13.649l-.092.092a.883.883,0,1,0,1.227,1.271l.022-.022A11.5,11.5,0,0,0,204.706,115.408Z" transform="translate(-188.219 -112.049)"/></g></svg>