<svg xmlns="http://www.w3.org/2000/svg" width="44.281" height="49.201" viewBox="0 0 44.281 49.201"><defs><style>.a{fill:#fff;}</style></defs><g transform="translate(-5 -2)"><path class="a" d="M43,40.1A4.1,4.1,0,1,0,47.1,36,4.1,4.1,0,0,0,43,40.1Zm6.56,0a2.46,2.46,0,1,1-2.46-2.46A2.46,2.46,0,0,1,49.56,40.1Z" transform="translate(-6.839 -6.119)"/><path class="a" d="M43.115,45.715c2.493-3.214,6.167-8.5,6.167-11.735a9.037,9.037,0,0,0-7.38-8.864V6.92h1.64a.82.82,0,0,0,.82-.82V2.82a.82.82,0,0,0-.82-.82H5.82A.82.82,0,0,0,5,2.82V6.1a.82.82,0,0,0,.82.82H7.46v32.8H5.82a.82.82,0,0,0-.82.82V43a.82.82,0,0,0,.82.82H35.989c.492.681.976,1.32,1.419,1.894-1.976.377-3.707,1.2-3.707,2.616,0,1.968,3.4,2.87,6.56,2.87s6.56-.9,6.56-2.87C46.821,46.913,45.091,46.093,43.115,45.715ZM6.64,5.28V3.64H42.721V5.28ZM37.8,18.4h-4.92a.82.82,0,0,0-.82.82v5.74h-.82V26.6h3.854a9,9,0,0,0-3.854,7.38c0,1.583.886,3.657,2.075,5.74H29.6v-4.1a4.92,4.92,0,1,0-9.84,0v4.1H9.1V6.92H40.261v18.04a9.039,9.039,0,0,0-1.64.156v-5.9A.82.82,0,0,0,37.8,18.4Zm-.82,1.64v4.92H33.7V20.04Zm-9.02,15.58v4.1H21.4v-4.1a3.28,3.28,0,0,1,6.56,0ZM6.64,42.181v-.82H34.308c.18.279.361.549.541.82Zm26.241-8.2a7.38,7.38,0,0,1,14.76,0c0,3.173-4.863,9.652-7.38,12.678C37.743,43.633,32.881,37.154,32.881,33.981Zm7.38,15.58c-3.149,0-4.822-.9-4.92-1.214.074-.254,1.123-.9,3.247-1.14.582.713.984,1.173,1.058,1.255a.82.82,0,0,0,1.23,0c.074-.082.476-.541,1.058-1.255,2.124.238,3.173.886,3.247,1.107C45.083,48.659,43.41,49.561,40.261,49.561Z"/><path class="a" d="M44.38,16.56V10.82a.82.82,0,0,0-.82-.82H38.64a.82.82,0,0,0-.82.82v5.74H37V18.2h8.2V16.56Zm-1.64,0H39.46V11.64h3.28Z" transform="translate(-5.759 -1.44)"/><path class="a" d="M31.38,16.56V10.82a.82.82,0,0,0-.82-.82H25.64a.82.82,0,0,0-.82.82v5.74H24V18.2h8.2V16.56Zm-1.64,0H26.46V11.64h3.28Z" transform="translate(-3.42 -1.44)"/><path class="a" d="M18.38,16.56V10.82a.82.82,0,0,0-.82-.82H12.64a.82.82,0,0,0-.82.82v5.74H11V18.2h8.2V16.56Zm-1.64,0H13.46V11.64h3.28Z" transform="translate(-1.08 -1.44)"/><path class="a" d="M18.38,28.56V22.82a.82.82,0,0,0-.82-.82H12.64a.82.82,0,0,0-.82.82v5.74H11V30.2h8.2V28.56Zm-1.64,0H13.46V23.64h3.28Z" transform="translate(-1.08 -3.6)"/><path class="a" d="M31.38,28.56V22.82a.82.82,0,0,0-.82-.82H25.64a.82.82,0,0,0-.82.82v5.74H24V30.2h8.2V28.56Zm-1.64,0H26.46V23.64h3.28Z" transform="translate(-3.42 -3.6)"/></g></svg>