<svg xmlns="http://www.w3.org/2000/svg" width="53" height="53" viewBox="0 0 53 53"><defs><style>.a{fill:#fff;}</style></defs><path class="a" d="M48.016,2.71H45.452V1.855A.855.855,0,0,0,44.6,1H10.4a.843.843,0,0,0-.809.627l-2.4-.6a.837.837,0,0,0-.207,0V1H1.855A.855.855,0,0,0,1,1.855V6.984a.855.855,0,0,0,.855.855h1.71v7.694h1.71V7.839h1.71a.852.852,0,0,0,.207-.026l2.4-.6a.843.843,0,0,0,.809.627v17.1a.855.855,0,0,0-.855.855v.855H8.694a4.279,4.279,0,0,0-4.274,4.274v.157a2.55,2.55,0,0,0,0,4.814v2.025a2.549,2.549,0,0,0,0,4.814v.157a4.279,4.279,0,0,0,4.274,4.274h.855v.855a.855.855,0,0,0,.855.855h2.565v4.274a.855.855,0,0,0,.855.855H41.178a.855.855,0,0,0,.855-.855V48.871H44.6a.855.855,0,0,0,.855-.855v-.855h.855a4.279,4.279,0,0,0,4.274-4.274V42.73a2.55,2.55,0,0,0,0-4.814V35.89a2.55,2.55,0,0,0,0-4.814v-.156a4.279,4.279,0,0,0-4.274-4.274h-.855V25.79a.855.855,0,0,0-.855-.855V7.839h2.565a1.711,1.711,0,0,1,1.71,1.71v5.984a.855.855,0,0,0,.855.855h3.419A.855.855,0,0,0,54,15.532V8.694A5.991,5.991,0,0,0,48.016,2.71ZM2.71,2.71H6.129V6.129H2.71Zm37.613,0h3.419V6.129H40.323Zm-.855,5.129v17.1H33.484V22.371a.855.855,0,0,0-.855-.855h-.855V11.258h.855a.855.855,0,0,0,.855-.855V7.839h.855a.855.855,0,0,0,.855-.855V2.71h3.419V6.984A.855.855,0,0,0,39.468,7.839Zm4.274,18.806v3.419H11.258V26.645Zm-5.129,17.1v-1.71h3.419v1.71ZM26.645,50.581v1.71H21.516V48.871H33.484V52.29H28.355v-1.71ZM17.6,47.161l-1.71-1.71h3.566l1.71,1.71ZM11.258,31.774h2.211l1.71,1.71h-3.92Zm26.146,0,1.71,1.71H35.548l-1.71-1.71Zm-.5,9.4v2.565H18.1V41.178a.855.855,0,0,0-.855-.855V35.194H37.758v5.129A.855.855,0,0,0,36.9,41.178ZM23.58,47.161l-1.71-1.71h3.566l1.71,1.71Zm5.984,0-1.71-1.71H31.42l1.71,1.71ZM31.42,31.774l1.71,1.71H29.564l-1.71-1.71Zm-5.984,0,1.71,1.71H23.58l-1.71-1.71Zm-5.984,0,1.71,1.71H17.6l-1.71-1.71Zm-3.92,3.419v5.129h-1.71V35.194Zm-2.565,6.839h3.419v1.71H12.968Zm22.58,5.129-1.71-1.71H37.4l1.71,1.71Zm3.92-6.839V35.194h1.71v5.129Zm2.064-6.839-1.71-1.71h3.92v1.71ZM21.516,6.129V2.71H33.484V6.129Zm10.258,1.71v1.71H23.226V7.839Zm-1.71,3.419V21.516H24.936V11.258Zm1.71,11.968v1.71H23.226v-1.71ZM16.387,6.984V2.71h3.419V6.984a.855.855,0,0,0,.855.855h.855V10.4a.855.855,0,0,0,.855.855h.855V21.516h-.855a.855.855,0,0,0-.855.855v2.565H15.532V7.839A.855.855,0,0,0,16.387,6.984ZM11.258,2.71h3.419V6.129H11.258Zm-3.419.24,1.71.427V5.461l-1.71.427Zm4.274,4.889h1.71v17.1h-1.71ZM5.274,32.629h.855v1.71H5.274a.855.855,0,1,1,0-1.71Zm0,6.839h.855v1.71H5.274a.855.855,0,1,1,0-1.71ZM9.548,44.6v.855H8.694a2.568,2.568,0,0,1-2.565-2.565h.855a.855.855,0,0,0,.855-.855V38.613a.855.855,0,0,0-.855-.855H6.129v-1.71h.855a.855.855,0,0,0,.855-.855V31.774a.855.855,0,0,0-.855-.855H6.129a2.568,2.568,0,0,1,2.565-2.565h.855v5.984a.855.855,0,0,0,.855.855h1.71v5.129a.855.855,0,0,0-.855.855v2.565H10.4A.855.855,0,0,0,9.548,44.6Zm1.71.855h2.211l1.71,1.71h-3.92Zm3.419,3.419h5.129V52.29H14.677ZM40.323,52.29H35.194V48.871h5.129Zm3.419-5.129H41.531l-1.71-1.71h3.92Zm5.984-5.984h-.855v-1.71h.855a.855.855,0,0,1,0,1.71Zm0-6.839h-.855v-1.71h.855a.855.855,0,0,1,0,1.71Zm-3.419-5.984a2.568,2.568,0,0,1,2.565,2.565h-.855a.855.855,0,0,0-.855.855v3.419a.855.855,0,0,0,.855.855h.855v1.71h-.855a.855.855,0,0,0-.855.855v3.419a.855.855,0,0,0,.855.855h.855a2.568,2.568,0,0,1-2.565,2.565h-.855V44.6a.855.855,0,0,0-.855-.855h-.855V41.178a.855.855,0,0,0-.855-.855V35.194H44.6a.855.855,0,0,0,.855-.855V28.355Zm-3.419-3.419h-1.71V7.839h1.71Zm9.4-10.258h-1.71V9.548a3.423,3.423,0,0,0-3.419-3.419h-1.71V4.419h2.565A4.279,4.279,0,0,1,52.29,8.694Z" transform="translate(-1 -1)"/></svg>