<svg xmlns="http://www.w3.org/2000/svg" width="58.411" height="58.224" viewBox="0 0 58.411 58.224"><defs><style>.a{fill:#fff;}</style></defs><g transform="translate(41.129 41.062)"><path class="a" d="M371.072,360.815a.857.857,0,0,0-.934.186l-9.369,9.369a.858.858,0,0,0,.606,1.464h9.369a.857.857,0,0,0,.857-.857v-9.369A.858.858,0,0,0,371.072,360.815Zm-7.628,9.3,6.442-6.442v6.442Z" transform="translate(-360.517 -360.749)"/></g><path class="a" d="M57.882,28.205a.857.857,0,0,0-.934.186L54.38,30.959V13.5a.857.857,0,0,0-.857-.857H46.935l2.391-2.391h0l2.3-2.3a2.615,2.615,0,0,0,0-3.7L48.967,1.586a2.615,2.615,0,0,0-3.7,0L42.965,3.891,40.179,6.676l-5.967,5.967H7.6V4.162A.857.857,0,0,0,6.743,3.3,6.751,6.751,0,0,0,0,10.047V46.461a.859.859,0,0,0,.02.184,6.494,6.494,0,0,0,6.474,6h26.2L27.758,57.58a.857.857,0,0,0,.606,1.464H57.554a.857.857,0,0,0,.857-.857V29A.858.858,0,0,0,57.882,28.205ZM46.483,2.8a.9.9,0,0,1,1.272,0l2.664,2.664a.9.9,0,0,1,0,1.272l-1.7,1.7L44.784,4.5ZM43.571,5.71l3.936,3.936-1.573,1.573L42,7.283ZM56.7,38.631H55.115a.857.857,0,1,0,0,1.715H56.7v2.584H55.115a.857.857,0,1,0,0,1.715H56.7v2.583H55.115a.857.857,0,1,0,0,1.715H56.7v2.584H55.115a.857.857,0,1,0,0,1.715H56.7v4.089H30.434l8.66-8.66a.857.857,0,0,0-1.213-1.212l-3.475,3.475H6.495a4.753,4.753,0,0,1-4.776-4.626q.007-.244.038-.484v0q.014-.114.034-.226l0-.026q.018-.1.04-.2l.013-.055q.02-.084.042-.167c.008-.03.017-.06.026-.09s.026-.087.039-.13.029-.086.043-.128.021-.06.032-.089c.021-.056.043-.112.066-.167l.02-.048c.029-.068.06-.136.092-.2l0-.009A5.047,5.047,0,0,1,5.72,41.538l.013,0c.071-.014.143-.027.215-.038l.036-.006c.065-.01.131-.018.2-.025l.055-.007c.064-.006.128-.011.192-.015l.061,0q.126-.006.254-.006a.857.857,0,0,0,.857-.857V34.359a.857.857,0,1,0-1.715,0v5.413a6.7,6.7,0,0,0-3.851,1.864c-.111.109-.217.222-.32.337V10.047A5.037,5.037,0,0,1,5.885,5.092V30.93h0a.857.857,0,0,0,1.715,0h0V14.358H32.5L27.758,19.1a.857.857,0,1,0,1.212,1.212l6.2-6.2h0l5.611-5.611,3.936,3.936-.462.462h0L26.972,30.181l-3.936-3.936,3.407-3.407a.857.857,0,1,0-1.212-1.212l-4.014,4.014a.862.862,0,0,0-.06.067l-.018.024c-.012.016-.024.032-.035.049l-.018.03c-.009.016-.019.032-.027.049l-.015.033c-.008.017-.015.034-.021.051l-.007.018-1.67,4.732-1.139,3.226a.867.867,0,0,0-.034.13H15.321a.857.857,0,1,0,0,1.715H39.063a.857.857,0,0,0,0-1.715H22.029L27.257,32.2l.013-.005.06-.025.023-.011c.021-.01.041-.022.061-.034l.019-.011c.021-.013.041-.028.06-.043l.015-.011A.862.862,0,0,0,27.578,32L45.22,14.358h7.445V32.674L40.4,44.937a.857.857,0,0,0,0,1.212.878.878,0,0,0,.065.059.857.857,0,0,0,1.147-.059h0L56.7,31.067ZM25.4,31.038l-2.456.867-1.636-1.636.867-2.456Z" transform="translate(0 -0.82)"/></svg>