<svg xmlns="http://www.w3.org/2000/svg" width="52.804" height="52.804" viewBox="0 0 52.804 52.804"><defs><style>.a{fill:#fff;}</style></defs><g transform="translate(0)"><path class="a" d="M169.31,16.628A8.314,8.314,0,1,0,161,8.314,8.324,8.324,0,0,0,169.31,16.628Zm0-14.943a6.629,6.629,0,1,1-6.629,6.629A6.636,6.636,0,0,1,169.31,1.685Z" transform="translate(-142.908 0)"/><path class="a" d="M121.345,164.694a12.716,12.716,0,0,1,12.672,11.857H114.544a.843.843,0,1,0,0,1.685h20.344a.843.843,0,0,0,.843-.843,14.385,14.385,0,0,0-28.77,0,.843.843,0,0,0,.843.843h3.37a.843.843,0,0,0,0-1.685h-2.5a12.716,12.716,0,0,1,12.672-11.857Z" transform="translate(-94.943 -144.695)"/><path class="a" d="M15.773,335.163l-4.622-.776-2.166-4.156a.843.843,0,0,0-1.494,0l-2.166,4.156L.7,335.163a.843.843,0,0,0-.462,1.421l3.284,3.345-.691,4.636a.843.843,0,0,0,1.209.878l4.2-2.089,4.2,2.089a.843.843,0,0,0,1.209-.879l-.691-4.636,3.284-3.345a.842.842,0,0,0-.462-1.421Zm-4.318,3.885a.843.843,0,0,0-.232.714l.514,3.452-3.124-1.556a.842.842,0,0,0-.751,0l-3.124,1.556.514-3.452a.842.842,0,0,0-.232-.714l-2.445-2.49,3.442-.578a.843.843,0,0,0,.608-.442l1.613-3.095,1.613,3.095a.843.843,0,0,0,.608.442l3.442.578-2.445,2.49Z" transform="translate(0.001 -292.728)"/><path class="a" d="M177.44,335.163l-4.622-.776-2.166-4.156a.843.843,0,0,0-1.494,0l-2.166,4.156-4.622.776a.843.843,0,0,0-.462,1.421l3.284,3.345-.691,4.636a.843.843,0,0,0,1.209.878l4.2-2.089,4.2,2.089a.843.843,0,0,0,1.209-.879l-.691-4.636,3.284-3.345a.842.842,0,0,0-.462-1.421Zm-4.318,3.885a.843.843,0,0,0-.232.714l.514,3.452-3.124-1.556a.842.842,0,0,0-.751,0l-3.124,1.556.514-3.452a.843.843,0,0,0-.232-.714l-2.445-2.49,3.442-.578a.843.843,0,0,0,.608-.442l1.613-3.095,1.613,3.095a.843.843,0,0,0,.608.442l3.442.578Z" transform="translate(-143.503 -292.728)"/><path class="a" d="M339.768,335.734a.843.843,0,0,0-.662-.571l-4.622-.776-2.166-4.156a.843.843,0,0,0-1.494,0l-2.166,4.156-4.622.776a.843.843,0,0,0-.462,1.421l3.284,3.345-.691,4.636a.843.843,0,0,0,1.209.878l4.2-2.089,4.2,2.089a.843.843,0,0,0,1.209-.879l-.691-4.636,3.284-3.345A.842.842,0,0,0,339.768,335.734Zm-4.98,3.314a.842.842,0,0,0-.232.714l.514,3.452-3.124-1.556a.843.843,0,0,0-.751,0l-3.124,1.556.514-3.452a.842.842,0,0,0-.232-.714l-2.445-2.49,3.442-.578a.843.843,0,0,0,.608-.442l1.613-3.095,1.613,3.095a.843.843,0,0,0,.608.442l3.442.578Z" transform="translate(-287.006 -292.728)"/><path class="a" d="M210.589,86.579a3.82,3.82,0,0,0,2.883-1.317.843.843,0,0,0-1.272-1.106,2.129,2.129,0,0,1-3.222,0,.843.843,0,0,0-1.272,1.106A3.82,3.82,0,0,0,210.589,86.579Z" transform="translate(-184.187 -74.444)"/></g></svg>