<svg xmlns="http://www.w3.org/2000/svg" width="118.543" height="42.978" viewBox="0 0 118.543 42.978"><defs><style>.a{fill:#168fc8;isolation:isolate;}.b{fill:#fff;}.c{fill:#006ab5;}</style></defs><g transform="translate(-231.11 -454.557)"><path class="a" d="M277.476,487.069v-5.6h11.816v-5.686H277.476v-4.148H290.31v-7.268H269.788v29.973H290.8v-7.268Z" transform="translate(-8.466 -2.147)"/><path class="a" d="M323.46,488.666a12.439,12.439,0,0,0-.6-1.172,31.359,31.359,0,0,0-2.823-4.238,12.7,12.7,0,0,0-2.205-1.991,7.919,7.919,0,0,0,6.508-8.349,9.045,9.045,0,0,0-1.267-4.854,7.051,7.051,0,0,0-3.268-2.88,17.891,17.891,0,0,0-6.418-.817H301.559v29.973h7.747V482.145h.737c1.2,0,.51.1,1.032.3a3.836,3.836,0,0,1,1.463,1.09,30.527,30.527,0,0,1,2.138,3.123,13.233,13.233,0,0,1,1.169,2.35l2.023,5.326h8.14Zm-14.154-18.6h2.31c2.972,0,2.42.112,2.74.2a2.781,2.781,0,0,1,1.5,1.026,3.331,3.331,0,0,1,.552,2.014,3.575,3.575,0,0,1-.555,2.108,2.577,2.577,0,0,1-1.429,1.021c-.633.181-.617.273-3.035.273h-2.086Z" transform="translate(-15.421 -2.147)"/><rect class="a" width="7.949" height="29.973" transform="translate(312.849 462.218)"/><path class="a" d="M369.236,464.365v18.5l-10.245-18.5h-6.957v29.973H359.7V476.288l9.276,18.049h7.146V464.365Z" transform="translate(-26.469 -2.147)"/><g transform="translate(231.11 454.557)"><rect class="b" width="8.626" height="41.708" transform="translate(0.586 0.586)"/><path class="c" d="M239.736,455.729v40.536h-7.454V455.729h7.454m1.172-1.172h-9.8v42.88h9.8v-42.88Z" transform="translate(-231.11 -454.557)"/></g><g transform="translate(244.343 454.557)"><rect class="b" width="8.626" height="10.535" transform="translate(0.586 0.586)"/><path class="c" d="M256.677,455.729v9.363h-7.454v-9.363h7.454m1.172-1.172h-9.8v11.706h9.8V454.557Z" transform="translate(-248.051 -454.557)"/></g><g transform="translate(244.343 470.193)"><rect class="b" width="8.626" height="10.534" transform="translate(0.586 0.586)"/><path class="c" d="M256.677,475.747v9.362h-7.454v-9.362h7.454m1.172-1.172h-9.8v11.706h9.8V474.575Z" transform="translate(-248.051 -474.575)"/></g><g transform="translate(244.343 485.829)"><rect class="b" width="8.626" height="10.534" transform="translate(0.586 0.586)"/><path class="c" d="M256.677,495.764v9.363h-7.454v-9.363h7.454m1.172-1.172h-9.8V506.3h9.8V494.592Z" transform="translate(-248.051 -494.592)"/></g></g></svg>