<svg xmlns="http://www.w3.org/2000/svg" width="151.763" height="55.022" viewBox="0 0 151.763 55.022"><defs><style>.a,.b{fill:#fff;}.a{isolation:isolate;}.c{fill:#006ab5;}</style></defs><g transform="translate(-231.11 -454.557)"><path class="a" d="M279.63,493.432V486.26h15.127V478.98H279.63v-5.31h16.431v-9.305H269.788v38.372h26.9v-9.305Z"/><path class="a" d="M329.6,495.476a15.936,15.936,0,0,0-.77-1.5,40.15,40.15,0,0,0-3.614-5.426A16.258,16.258,0,0,0,322.391,486a10.138,10.138,0,0,0,8.332-10.689A11.58,11.58,0,0,0,329.1,469.1a9.028,9.028,0,0,0-4.184-3.687c-1.681-.7-4.369-1.046-8.217-1.046H301.559v38.372h9.918v-15.61h.944c1.536,0,.653.131,1.321.389a4.911,4.911,0,0,1,1.873,1.4,39.079,39.079,0,0,1,2.737,4,16.938,16.938,0,0,1,1.5,3.008l2.59,6.819H332.86ZM311.477,471.67h2.958c3.8,0,3.1.143,3.508.26a3.561,3.561,0,0,1,1.925,1.314,4.264,4.264,0,0,1,.707,2.579,4.576,4.576,0,0,1-.711,2.7,3.3,3.3,0,0,1-1.83,1.307c-.81.232-.79.35-3.886.35h-2.671Z"/><rect class="a" width="10.176" height="38.372" transform="translate(335.755 464.365)"/><path class="a" d="M374.056,464.365v23.683L360.94,464.365h-8.907v38.372h9.816V479.63l11.875,23.107h9.149V464.365Z"/><rect class="b" width="11.043" height="53.396" transform="translate(231.86 455.307)"/><path class="c" d="M242.153,456.057v51.9H232.61v-51.9h9.543m1.5-1.5H231.11v54.9h12.543v-54.9Z"/><rect class="b" width="11.043" height="13.487" transform="translate(248.801 455.307)"/><path class="c" d="M259.094,456.057v11.987h-9.543V456.057h9.543m1.5-1.5H248.051v14.987h12.543V454.557Z"/><rect class="b" width="11.043" height="13.486" transform="translate(248.801 475.325)"/><path class="c" d="M259.094,476.075v11.986h-9.543V476.075h9.543m1.5-1.5H248.051v14.986h12.543V474.575Z"/><rect class="b" width="11.043" height="13.486" transform="translate(248.801 495.343)"/><path class="c" d="M259.094,496.092v11.987h-9.543V496.092h9.543m1.5-1.5H248.051v14.987h12.543V494.592Z"/></g></svg>